<svg width="394" height="306" viewBox="0 0 394 306" fill="none" xmlns="http://www.w3.org/2000/svg">
<g clip-path="url(#clip0_5_20)">
<path d="M111.498 164.81C114.946 168.196 117.266 171.646 119.36 175.075C121.351 178.525 122.993 181.975 124.245 185.446C126.77 192.388 127.981 199.372 128.227 206.378C128.453 213.404 127.693 220.452 125.62 227.542C123.403 234.633 120.427 241.765 114.187 249.003C107.495 242.21 104.047 235.289 101.399 228.368C98.8745 221.426 97.684 214.441 97.4582 207.436C97.2734 200.409 98.0329 193.361 100.106 186.271C101.132 182.715 102.549 179.16 104.314 175.583C106.161 172.027 108.275 168.429 111.498 164.81Z" fill="white"/>
<path d="M272.875 164.81C276.323 168.196 278.643 171.646 280.737 175.075C282.728 178.525 284.37 181.975 285.622 185.446C288.146 192.388 289.358 199.372 289.604 206.378C289.83 213.404 289.07 220.452 286.997 227.542C284.78 234.633 281.804 241.765 275.564 249.003C268.872 242.21 265.424 235.289 262.776 228.368C260.251 221.426 259.061 214.441 258.835 207.436C258.65 200.409 259.41 193.361 261.483 186.271C262.509 182.715 263.926 179.16 265.691 175.583C267.538 172.027 269.632 168.429 272.875 164.81Z" fill="white"/>
<path d="M381.808 119.623C379.058 113.02 379.243 107.94 381.685 101.781C392.031 75.6216 393.96 48.3614 389.116 20.8684C385.544 0.656088 372.633 -5.12189 355.104 4.63506C341.844 12.0004 329.344 20.7626 318.465 31.5143C312.615 37.2923 307.955 37.0806 301.366 33.2921C282.441 22.4558 262.202 14.9423 240.876 10.9633C188.411 1.18521 138.183 7.4923 90.9935 34.1387C85.3899 37.3134 81.4489 36.9113 76.5636 32.3609C65.1716 21.715 52.6506 12.5295 39.0623 4.93137C21.574 -4.88908 8.80672 0.571431 4.84517 20.551C-0.614797 48.1498 2.15624 75.2618 12.0088 101.464C14.5335 108.173 14.7388 113.739 11.7625 120.491C-0.2248 147.624 -2.95478 176.027 3.10044 205.15C12.2551 249.236 45.8975 275.798 54.7033 282.444C82.3725 303.312 121.146 304.434 197.545 305.852C294.346 307.63 323.514 294.719 342.07 281.131C348.761 276.221 364.936 265.152 376.595 243.627C398.312 203.499 399.297 161.656 381.808 119.623ZM36.825 79.3255C33.4381 82.5848 32.145 88.257 26.8082 89.1671C24.9403 89.4845 23.955 87.4527 23.4419 85.7807C19.4188 72.7855 16.1756 59.6846 17.5303 42.7528C25.3303 53.8431 31.2418 62.3513 37.2355 70.7749C39.4113 73.8438 39.3497 76.8703 36.825 79.3255ZM149.616 231.902C147.112 259.586 139.579 266.041 112.259 265.66C86.252 265.3 66.2184 253.3 53.3075 230.103C41.2997 208.536 39.9449 186.165 51.7885 163.752C57.0638 155.773 62.8111 148.217 70.5084 142.502C87.3809 131.539 105.937 132.47 120.715 145.635C146.455 168.556 152.593 198.906 149.616 231.902ZM156.677 143.116C152.018 139.328 148.303 135.878 144.608 132.703C140.975 129.507 137.485 126.713 133.955 124.152C130.404 121.591 126.771 119.348 122.706 117.105C118.622 114.882 114.127 112.977 108.667 110.438C113.49 106.755 119.484 105.443 125.436 105.803C131.369 106.268 137.321 108.427 142.206 112.046C147.133 115.623 151.053 120.427 153.619 125.761C156.103 131.094 157.58 136.978 156.677 143.116ZM231.003 125.719C233.568 120.385 237.489 115.581 242.415 112.004C247.3 108.385 253.253 106.226 259.185 105.76C265.138 105.422 271.111 106.713 275.955 110.395C270.516 112.914 266 114.84 261.915 117.062C257.851 119.306 254.218 121.549 250.667 124.11C247.136 126.671 243.647 129.486 240.014 132.661C236.339 135.835 232.624 139.285 227.944 143.074C227.041 136.978 228.519 131.094 231.003 125.719ZM333.798 228.41C320.887 251.607 300.853 263.607 274.847 263.967C247.526 264.348 239.973 257.871 237.489 230.209C234.513 197.213 240.65 166.863 266.39 143.941C281.169 130.777 299.724 129.825 316.597 140.809C324.294 146.524 330.041 154.079 335.317 162.058C347.16 184.472 345.806 206.843 333.798 228.41ZM370.273 85.2939C369.554 87.5374 368.98 90.31 365.49 89.0401C358.717 86.585 355.124 74.4787 359.373 68.2775C364.176 61.2719 369 54.2876 373.803 47.282C377.416 61.2084 374.132 73.2935 370.273 85.2939Z" fill="white"/>
</g>
<defs>
<clipPath id="clip0_5_20">
<rect width="394" height="306" fill="white"/>
</clipPath>
</defs>
</svg>
