<svg width="729" height="173" viewBox="0 0 729 173" fill="#000000" xmlns="http://www.w3.org/2000/svg">
<g clip-path="url(#clip0_129_2)">
<path d="M62.8238 93.1769C64.7668 95.0914 66.0737 97.0418 67.2534 98.9802C68.3752 100.931 69.3005 102.881 70.006 104.843C71.4285 108.768 72.1109 112.717 72.2497 116.678C72.3769 120.65 71.949 124.635 70.7809 128.643C69.5318 132.652 67.8548 136.684 64.3389 140.776C60.5685 136.935 58.6255 133.023 57.1336 129.11C55.711 125.185 55.0402 121.236 54.913 117.276C54.8089 113.303 55.2368 109.319 56.4049 105.31C56.9832 103.3 57.7812 101.29 58.7759 99.2674C59.8167 97.2572 61.008 95.223 62.8238 93.1769Z" fill="#000000"/>
<path d="M153.752 93.1769C155.695 95.0914 157.002 97.0418 158.182 98.9802C159.303 100.931 160.229 102.881 160.934 104.843C162.357 108.768 163.039 112.717 163.178 116.678C163.305 120.65 162.877 124.635 161.709 128.643C160.46 132.652 158.783 136.684 155.267 140.776C151.497 136.935 149.554 133.023 148.062 129.11C146.639 125.185 145.968 121.236 145.841 117.276C145.737 113.303 146.165 109.319 147.333 105.31C147.911 103.3 148.709 101.29 149.704 99.2674C150.745 97.2572 151.925 95.223 153.752 93.1769Z" fill="#000000"/>
<path d="M215.131 67.63C213.581 63.8967 213.685 61.025 215.061 57.543C220.89 42.7534 221.977 27.3416 219.248 11.7981C217.236 0.370883 209.961 -2.89575 200.084 2.62043C192.613 6.78449 185.569 11.7383 179.439 17.8169C176.143 21.0835 173.518 20.9638 169.805 18.822C159.142 12.6955 147.738 8.44772 135.722 6.19817C106.16 0.670025 77.8596 4.2358 51.2704 19.3006C48.1131 21.0955 45.8925 20.8681 43.1399 18.2955C36.721 12.2767 29.6661 7.08364 22.0097 2.78795C12.1559 -2.76413 4.96214 0.323021 2.72999 11.6186C-0.346433 27.2219 1.21491 42.5499 6.76636 57.3635C8.18892 61.1566 8.30457 64.3036 6.62757 68.1206C-0.126688 83.4606 -1.6649 99.5186 1.74693 115.983C6.90514 140.908 25.861 155.925 30.8226 159.682C46.4129 171.48 68.2602 172.114 111.307 172.916C165.85 173.921 182.285 166.622 192.74 158.94C196.51 156.164 205.624 149.906 212.193 137.737C224.429 115.05 224.984 91.3939 215.131 67.63ZM20.7491 44.8474C18.8408 46.6901 18.1121 49.8969 15.1051 50.4114C14.0526 50.5909 13.4975 49.4422 13.2083 48.4969C10.9415 41.15 9.11416 33.7432 9.87748 24.1706C14.2724 30.4407 17.6032 35.2509 20.9804 40.0132C22.2063 41.7482 22.1716 43.4593 20.7491 44.8474ZM84.3016 131.108C82.8906 146.759 78.646 150.409 63.2523 150.193C48.5988 149.99 37.3109 143.205 30.0362 130.091C23.2703 117.898 22.507 105.25 29.1803 92.5785C32.1527 88.0674 35.391 83.7957 39.7281 80.565C49.2349 74.3667 59.6901 74.8932 68.0173 82.3359C82.5205 95.2947 85.9785 112.454 84.3016 131.108ZM88.2801 80.912C85.6547 78.7701 83.5614 76.8197 81.4796 75.0248C79.4325 73.218 77.4663 71.6385 75.4771 70.1907C73.4762 68.7428 71.4291 67.4745 69.1392 66.2061C66.8376 64.9497 64.3048 63.8728 61.2284 62.4369C63.9462 60.3549 67.3234 59.613 70.6774 59.8164C74.0198 60.0797 77.3738 61.3002 80.1264 63.3463C82.9021 65.3685 85.1111 68.0847 86.5568 71.1001C87.9562 74.1154 88.789 77.4419 88.2801 80.912ZM130.159 71.0762C131.604 68.0608 133.814 65.3446 136.589 63.3224C139.342 61.2763 142.696 60.0558 146.038 59.7925C149.392 59.6011 152.758 60.331 155.487 62.413C152.422 63.8369 149.878 64.9258 147.576 66.1822C145.286 67.4506 143.239 68.7189 141.239 70.1668C139.249 71.6146 137.283 73.206 135.236 75.0009C133.166 76.7958 131.072 78.7462 128.436 80.888C127.927 77.4419 128.759 74.1154 130.159 71.0762ZM188.079 129.134C180.804 142.248 169.516 149.033 154.863 149.236C139.469 149.451 135.213 145.79 133.814 130.151C132.137 111.496 135.595 94.3375 150.098 81.3786C158.425 73.936 168.88 73.3975 178.387 79.6077C182.724 82.8384 185.962 87.1102 188.935 91.6213C195.608 104.293 194.845 116.941 188.079 129.134ZM208.631 48.2217C208.226 49.49 207.902 51.0576 205.936 50.3396C202.119 48.9516 200.095 42.1072 202.49 38.6013C205.196 34.6406 207.914 30.6919 210.62 26.7313C212.656 34.6047 210.805 41.4371 208.631 48.2217Z" fill="#000000"/>
</g>
<g clip-path="url(#clip1_129_2)">
<path d="M315 140.292C315 138.275 315.417 136.693 316.224 135.57C317.032 134.447 317.918 133.4 318.829 132.456C319.741 131.486 320.627 130.414 321.435 129.163C322.242 127.938 322.659 126.152 322.659 123.803V57.8239C322.659 55.4757 322.242 53.689 321.435 52.4639C320.627 51.2387 319.741 50.1412 318.829 49.1713C317.892 48.2014 317.032 47.1804 316.224 46.0574C315.417 44.9343 315 43.3518 315 41.3354C315 38.9872 315.782 37.3026 317.371 36.2817C318.96 35.2607 321.096 34.7502 323.831 34.7502H350.638C353.373 34.7502 355.509 35.2607 357.098 36.2817C358.687 37.3026 359.469 38.9872 359.469 41.3354C359.469 43.3773 359.052 44.9343 358.244 46.0574C357.437 47.1804 356.551 48.2269 355.639 49.1713C354.701 50.1412 353.842 51.2387 353.034 52.4639C352.227 53.689 351.81 55.4757 351.81 57.8239V123.803C351.81 126.688 352.461 129.163 353.764 131.256C355.066 133.349 356.916 134.37 359.312 134.37H369.941C372.885 134.37 375.177 133.783 376.819 132.609C378.46 131.435 379.919 130.184 381.221 128.857C382.524 127.53 383.878 126.279 385.311 125.105C386.718 123.931 388.646 123.344 391.042 123.344C393.543 123.344 395.211 124.084 396.018 125.59C396.826 127.096 397.034 129.061 396.591 131.512L395.445 138.888C394.898 141.338 394.012 143.304 392.736 144.733C391.485 146.162 389.323 146.903 386.275 146.903H323.831C321.096 146.903 318.96 146.392 317.371 145.371C315.782 144.325 315 142.666 315 140.292Z" fill="#000000"/>
<path d="M434 123.803C434 126.151 434.417 127.938 435.225 129.163C436.032 130.388 436.918 131.486 437.83 132.456C438.742 133.426 439.627 134.447 440.435 135.57C441.242 136.693 441.659 138.275 441.659 140.292C441.659 144.682 438.872 146.851 433.323 146.851H407.663C402.218 146.851 399.483 144.656 399.483 140.292C399.483 138.275 399.9 136.693 400.707 135.57C401.515 134.447 402.401 133.4 403.312 132.456C404.224 131.486 405.11 130.414 405.917 129.163C406.725 127.938 407.142 126.151 407.142 123.803V85.3642C407.142 83.016 406.725 81.2293 405.917 80.0041C405.11 78.779 404.224 77.7325 403.312 76.8902C402.375 76.0479 401.515 75.1291 400.707 74.1592C399.9 73.1893 399.483 71.862 399.483 70.1519C399.483 68.0079 400.525 66.0681 402.583 64.3069C404.641 62.5458 407.09 61.0143 409.851 59.7381C412.613 58.4619 415.452 57.441 418.344 56.7008C421.235 55.9606 423.502 55.5777 425.117 55.5777C427.852 55.5777 429.988 56.1392 431.578 57.2623C433.167 58.3854 433.948 60.3762 433.948 63.2604V123.803H434ZM420.584 52.5404C416.103 52.5404 412.456 51.3663 409.643 49.0181C406.803 46.6698 405.396 43.2496 405.396 38.7829C405.396 34.2907 406.803 30.8705 409.643 28.5223C412.456 26.1741 416.129 25 420.584 25C425.039 25 428.712 26.1741 431.525 28.5223C434.365 30.8705 435.772 34.2907 435.772 38.7829C435.772 43.2752 434.365 46.6954 431.525 49.0436C428.712 51.3663 425.065 52.5404 420.584 52.5404Z" fill="#000000"/>
<path d="M456.065 146.877C450.621 146.877 447.885 144.682 447.885 140.317C447.885 138.301 448.302 136.718 449.11 135.595C449.917 134.472 450.803 133.426 451.715 132.481C452.627 131.511 453.512 130.439 454.32 129.189C455.128 127.964 455.544 126.177 455.544 123.829V85.3641C455.544 83.0159 455.128 81.2548 454.32 80.0806C453.512 78.9065 452.627 77.8601 451.715 76.9667C450.777 76.0734 449.917 75.1545 449.11 74.2357C448.302 73.3423 447.885 71.964 447.885 70.1518C447.885 68.0078 448.927 66.068 450.985 64.3068C453.043 62.5457 455.492 61.0142 458.254 59.738C461.015 58.4618 463.855 57.4409 466.746 56.7007C469.638 55.9605 471.904 55.5776 473.519 55.5776C476.255 55.5776 478.391 56.1392 479.98 57.2622C481.569 58.3853 482.351 60.3761 482.351 63.2604V75.9202C483.341 73.036 484.591 70.3815 486.102 67.9057C487.613 65.4554 489.515 63.3114 491.729 61.4992C493.969 59.687 496.522 58.2321 499.414 57.1856C502.306 56.1136 505.64 55.5776 509.47 55.5776C513.612 55.5776 517.05 56.2413 519.76 57.5685C522.469 58.8958 524.683 60.6824 526.377 62.9285C528.07 65.1746 529.32 67.7781 530.128 70.7644C530.935 73.7507 531.456 76.9667 531.691 80.3614L534.947 123.752C535.156 126.1 535.677 127.887 536.51 129.112C537.318 130.337 538.204 131.435 539.115 132.405C540.027 133.375 540.861 134.396 541.564 135.519C542.268 136.642 542.632 138.224 542.632 140.241C542.632 144.631 539.897 146.8 534.452 146.8H508.792C503.348 146.8 500.612 144.605 500.612 140.241C500.612 138.224 501.055 136.642 501.915 135.519C502.775 134.396 503.712 133.349 504.702 132.405C505.692 131.46 506.578 130.363 507.412 129.112C508.219 127.887 508.532 126.1 508.297 123.752L505.041 85.3131C504.598 81.2547 503.947 78.3195 503.087 76.5073C502.227 74.6951 500.534 73.7762 498.033 73.7762C495.637 73.7762 493.448 74.7972 491.494 76.8136C489.541 78.83 487.873 81.4589 486.519 84.6494C485.164 87.8399 484.122 91.4133 483.419 95.2929C482.715 99.1981 482.351 102.95 482.351 106.575V123.701C482.351 126.049 482.767 127.836 483.575 129.061C484.383 130.286 485.268 131.384 486.18 132.354C487.092 133.324 487.978 134.345 488.785 135.468C489.593 136.591 490.01 138.173 490.01 140.19C490.01 144.58 487.222 146.749 481.673 146.749H456.065V146.877Z" fill="#000000"/>
<path d="M628.808 121.736C629.798 121.736 630.502 122.221 630.945 123.165C631.387 124.109 631.596 125.028 631.596 125.896C631.596 128.449 631.231 131.052 630.528 133.655C629.824 136.284 628.73 138.658 627.271 140.777C625.787 142.921 623.859 144.656 621.462 145.984C619.065 147.311 616.122 147.974 612.631 147.974C608.046 147.974 604.19 146.724 601.012 144.222C597.86 141.721 595.672 137.688 594.473 132.124C591.973 136.82 588.534 140.649 584.183 143.584C579.833 146.52 574.388 148 567.849 148C561.102 148 555.527 146.162 551.177 142.487C546.826 138.811 544.638 133.604 544.638 126.866C544.638 122.706 545.446 118.749 547.087 115.023C548.728 111.296 551.333 108.029 554.928 105.247C558.523 102.465 563.16 100.245 568.813 98.611C574.466 96.952 581.344 96.1352 589.42 96.1352H591.712L590.904 85.4151C590.462 79.5446 589.289 75.0014 587.388 71.8109C585.486 68.6204 582.933 67.0123 579.781 67.0123C577.488 67.0123 575.587 68.1609 574.05 70.4581C572.513 72.7552 571.497 76.4562 570.95 81.5865C570.741 83.6285 570.064 85.2365 568.996 86.4616C567.902 87.6868 566.156 88.2993 563.759 88.2993C562.014 88.2993 560.217 88.0441 558.367 87.5081C556.517 86.9721 554.824 86.2064 553.287 85.1854C551.75 84.1645 550.5 82.8627 549.536 81.2547C548.572 79.6467 548.077 77.8345 548.077 75.8181C548.077 74.0059 548.806 71.9385 550.291 69.6413C551.75 67.3442 553.964 65.1491 556.908 63.0817C559.852 60.9887 563.551 59.2275 568.032 57.7982C572.487 56.3689 577.723 55.6287 583.714 55.6287C593.64 55.6287 601.377 57.9258 606.926 62.5201C612.475 67.1144 615.601 73.0871 616.252 80.4635L619.508 118.264C619.717 120.408 620.134 122.119 620.733 123.395C621.332 124.671 622.218 125.309 623.442 125.309C624.302 125.309 624.927 125.13 625.318 124.748C625.708 124.365 626.021 123.982 626.308 123.548C626.568 123.114 626.907 122.731 627.298 122.348C627.636 121.914 628.157 121.736 628.808 121.736ZM581.083 129.725C584.678 129.725 587.492 127.989 589.498 124.518C591.504 121.047 592.52 115.533 592.52 107.953L592.181 103.639H589.394C585.799 103.639 582.881 104.252 580.64 105.477C578.4 106.702 576.655 108.259 575.404 110.122C574.154 111.986 573.372 114.002 573.034 116.12C572.695 118.264 572.695 120.23 573.034 122.042C573.372 124.594 574.284 126.534 575.821 127.81C577.358 129.087 579.129 129.725 581.083 129.725Z" fill="#000000"/>
<path d="M634.201 140.292C634.201 138.275 634.618 136.693 635.425 135.57C636.233 134.447 637.119 133.4 638.03 132.456C638.942 131.486 639.828 130.414 640.635 129.163C641.443 127.938 641.86 126.151 641.86 123.803V54.9396C641.86 52.5914 641.443 50.8047 640.635 49.5796C639.828 48.3544 638.942 47.3079 638.03 46.4657C637.093 45.6234 636.233 44.7045 635.425 43.7346C634.618 42.7647 634.201 41.3864 634.201 39.5742C634.201 37.5578 635.243 35.6435 637.301 33.8823C639.359 32.1212 641.808 30.5642 644.569 29.237C647.357 27.9097 650.17 26.8632 653.062 26.1231C655.953 25.3829 658.22 25 659.835 25C662.544 25 664.706 25.5615 666.296 26.6846C667.885 27.8076 668.666 29.8751 668.666 32.8614V76.5584C669.76 73.6742 671.063 70.9431 672.6 68.3907C674.111 65.8383 676.013 63.5922 678.227 61.6779C680.441 59.7636 683.02 58.2577 685.912 57.1857C688.804 56.1137 692.086 55.5777 695.811 55.5777C699.953 55.5777 703.392 56.2413 706.101 57.5686C708.811 58.8958 711.025 60.6825 712.718 62.9286C714.411 65.1747 715.662 67.7782 716.469 70.7645C717.277 73.7508 717.798 76.9668 718.033 80.3615L721.289 123.752C721.497 126.1 722.018 127.887 722.852 129.112C723.66 130.337 724.545 131.435 725.457 132.405C726.369 133.375 727.202 134.396 727.906 135.519C728.609 136.642 728.974 138.224 728.974 140.241C728.974 144.631 726.239 146.8 720.794 146.8H695.134C689.689 146.8 686.954 144.605 686.954 140.241C686.954 138.224 687.397 136.642 688.256 135.519C689.116 134.396 690.054 133.349 691.044 132.405C692.034 131.435 692.92 130.363 693.753 129.112C694.561 127.887 694.873 126.1 694.639 123.752L691.383 85.3131C690.94 81.2548 690.288 78.3196 689.429 76.5074C688.569 74.6952 686.876 73.7763 684.375 73.7763C681.978 73.7763 679.79 74.7973 677.836 76.8137C675.882 78.83 674.215 81.459 672.86 84.6495C671.506 87.84 670.464 91.4134 669.76 95.293C669.057 99.1982 668.692 102.95 668.692 106.575V123.701C668.692 126.049 669.109 127.836 669.917 129.061C670.724 130.286 671.61 131.384 672.522 132.354C673.434 133.324 674.319 134.345 675.127 135.468C675.934 136.591 676.351 138.173 676.351 140.19C676.351 144.58 673.564 146.749 668.015 146.749H642.355C636.936 146.877 634.201 144.682 634.201 140.292Z" fill="#000000"/>
</g>
<defs>
<clipPath id="clip0_129_2">
<rect width="222" height="173" fill="#000000"/>
</clipPath>
<clipPath id="clip1_129_2">
<rect width="414" height="123" fill="#000000" transform="translate(315 25)"/>
</clipPath>
</defs>
</svg>
